<svg version="1" xmlns="http://www.w3.org/2000/svg" width="1066.667" height="1066.667" viewBox="0 0 800.000000 800.000000"><path d="M85.8 235.2c-.4 289.1-.6 261.5 2.1 279.8 2.8 18.7 7.7 38.8 13.8 56.4 4.9 14.2 16.4 40.1 18.7 42.5 1.3 1.3 9.2-2.2 66.8-29.9 35.9-17.3 65.7-31.7 66.1-32 1.3-1.1-10.3 0-16.6 1.6-3.2.8-8.1 2.5-10.8 3.8-2.7 1.2-4.9 2.1-4.9 1.8 0-.3 5.4-8.6 12.1-18.4 6.6-9.9 11.9-18.1 11.7-18.3-.2-.2-3.4 1-7.1 2.6-6.6 2.9-7 3-8.8 1.3-1-.9-1.9-2.8-1.9-4.1 0-1.9-1.1-2.8-5.6-4.8-3-1.3-8.4-5-12-8.1-4.5-4-6.9-5.4-8.1-5-1 .4-5.8 2.3-10.6 4.4l-8.8 3.7-12.5 17.7c-6.9 9.8-12.9 17.8-13.3 17.8-.4 0-5.2-4.7-10.6-10.5l-9.7-10.6 4.2-10.1c2.8-6.8 4-11 3.7-12.8-.5-2.5.6-3.5 16.6-15.2l17.2-12.5 11.9-2.8 11.9-2.7 25.1 7.8c13.8 4.3 25.2 7.9 25.4 8 .1.1 1 4 1.9 8.8.9 4.7 1.9 8.6 2.2 8.6.4-.1 4.4-6.5 9.1-14.3l8.5-14.2.6 5.5c.6 6 2.8 10.8 8.3 18.4 3.7 5.2 3.7 5.2 5.4-1.4l.9-3.5 4.3 8.5c4.2 8.3 12.4 21.5 14 22.5.4.3 11.5-4.7 24.6-11.1l23.9-11.5-78.7-39.7c-43.3-21.9-79-40.1-79.4-40.5-.4-.4 17.4-.7 39.5-.7h40.2l60.2 30.4 60.2 30.4 63-30.3 63-30.4 40.5-.1c22.3 0 40 .4 39.5.9-.6.4-35 17.1-76.5 37.1s-78.6 37.9-82.5 39.8l-7 3.5 22.9 11.4c18.8 9.4 23 11.2 24.3 10.2 2.6-2.2 7.7-10.1 12.9-20.3 2.8-5.4 5.4-9.5 5.6-9 .3.5.9 2.7 1.3 4.9l.7 4 2.8-3.4c4.6-5.4 9-14.7 9.7-20.1l.6-5 8.5 14c4.6 7.8 8.7 13.8 9 13.6.2-.3 1.2-4.2 2.1-8.8l1.7-8.2 24.9-7.8 25-7.9 12.3 2.7 12.4 2.8 17.3 12.5c15.6 11.4 17.2 12.8 16.4 14.8-.6 1.7.3 4.9 3.5 12.7l4.3 10.5-10 10.8c-5.5 5.9-10.2 10.7-10.5 10.6-.2 0-5.9-7.9-12.6-17.5l-12.1-17.3-7.5-3.6c-4.1-2-9.2-4.3-11.3-5l-3.8-1.2-5.7 5.6c-3.8 3.7-7.7 6.4-11.6 8-5 2.1-5.9 2.9-6.2 5.2-.2 1.6-1 3.5-1.8 4.3-1.3 1.3-2.2 1.2-7.8-1.2-3.5-1.6-6.9-3.1-7.7-3.4-.7-.3 4 7.6 10.6 17.4 6.6 9.8 12.3 18.5 12.7 19.2.4.7-1.5.2-4.3-1.2-7.6-3.9-29.1-8-30.5-5.8-.8 1.3 137.7 71.1 139 70.1 1.9-1.5 14.9-28.5 19.7-40.9 8.8-22.5 15.3-48.6 18.2-73.6 1.3-11.2 1.5-44.7 1.5-249.6V21H86l-.2 214.2zm407.9-151c52.3 17.8 94.9 32.6 94.5 32.9-.4.4-3.2 1.4-6.2 2.2-3 .9-45.5 13.8-94.5 28.7l-89 27-93-28.6c-51.1-15.7-93.3-28.9-93.8-29.3-.5-.5 182.3-64.3 186.3-65 .3-.1 43.3 14.4 95.7 32.1zM291 171.6c39.9 13.5 80.4 27.2 90 30.5l17.5 6 91.4-30.6c50.3-16.7 91.6-30.3 91.8-30.2.1.2-16 8.2-36 17.7-19.9 9.6-61.1 29.4-91.6 44.1l-55.4 26.6-15.1-7.2c-50.1-24-169.9-82.8-167.1-81.9 1.1.3 34.6 11.6 74.5 25zm-10.4 37c35.2 11.9 76.1 25.7 90.9 30.7l27 9 91-30.3c50.1-16.7 91.7-30.5 92.5-30.7.8-.2-6.1 3.4-15.5 8-21.9 10.8-167.4 80.7-168 80.7-.2 0-32.9-15.8-72.7-35.1-100.5-48.9-110.4-53.8-109.7-53.8.3-.1 29.4 9.6 64.5 21.5zm26.9 48.3l91 30.8 92.4-30.8c50.9-17 92.6-30.8 92.7-30.6.3.2-180.7 87.1-183.8 88.3-1.2.4-28.4-12.3-79.5-37.2C215.8 226.7 214.4 226 215.5 226c.6 0 41.9 13.9 92 30.9zm269 14c-5.5 2.6-47.8 22.9-93.9 45l-83.9 40.3-3.6-1.7c-20.8-9.8-179-86.9-178.8-87.1.2-.2 21.7 6.9 47.8 15.7 26.1 8.8 67 22.7 91 30.8l43.6 14.8 92.9-31.3c51.1-17.2 93.4-31.3 93.9-31.3.6 0-3.5 2.1-9 4.8zM308 337.8l90.4 30.6 92-30.7c50.6-16.9 92.1-30.5 92.3-30.4.1.2-38.1 18.7-85 41.2-46.8 22.4-88.3 42.4-92.2 44.2l-7 3.4-92-44.6c-50.6-24.6-92.2-45-92.5-45.3-.3-.3.4-.2 1.5.2s42.7 14.5 92.5 31.4zm-3.1 35.2c50.8 18.2 93 33 93.6 33 1.5 0 148.8-51.4 181.8-63.4l9.7-3.5v33.5l-95.2 33.8c-52.4 18.7-95.8 33.9-96.3 33.9-.6 0-43.4-15.2-95.2-33.9L209 372.5v-16.9c0-15.3.2-16.8 1.7-16.2.9.4 43.3 15.5 94.2 33.6z"/><path d="M370 535.6c-14 6.8-25.9 12.6-26.5 12.8-2.9 1.4 23.7 20 38.6 27 5.3 2.5 11 4.9 12.8 5.2l3.1.6v-28.5c0-21.9-.3-28.6-1.2-28.9-.7-.3-12.8 5-26.8 11.8zM223.3 606.2l-83.2 40.1 7 9.1c14.8 19.4 42.3 47.4 45.2 46.3.7-.3 10.2-7.2 21.2-15.4 26.8-20.1 43.3-31.1 59-39 15.7-8 30.1-16.7 45.5-27.8 16.6-11.8 23-16 31-20.4l7.1-3.8-9.8-5.8c-5.4-3.2-12.9-8-16.7-10.7-7.1-5.2-20.3-12.8-22.1-12.7-.5 0-38.4 18-84.2 40.1zM475 570.3c-3.1 1.8-9.2 5.7-13.5 8.8-4.4 3.1-10.9 7.3-14.5 9.4-12.7 7.4-12.3 6.1-3.9 10.9 8.6 4.9 16 9.8 31.9 21.2 14.1 10.1 30.1 19.9 44 26.9 15.7 7.9 34.3 21.8 64 47.9 8 7.1 15.1 13 15.7 13.3 3 1.2 34.1-28.7 48.1-46.1l7.1-9-32.2-16.4C560 605.9 482.3 567 481.4 567c-.5 0-3.4 1.5-6.4 3.3zM385 614.6c-20.3 6-39.1 15.8-59 30.9-24.6 18.6-39 25.2-96.3 44.6-19.2 6.4-35.3 12.1-35.9 12.7-.7.7 2.1 3.4 8.4 8.2 48.2 37.4 102.2 59 164.8 66.1 13.9 1.6 51.6 1.6 66 0 51.6-5.7 99.7-22.6 141.5-49.8 14.4-9.4 23.7-16.5 22.8-17.3-.4-.4-15.3-6.4-33-13.4-47-18.6-73-31.8-93.7-47.5-24.8-18.9-45.3-29.7-66.4-35.1-9.7-2.4-8.8-2.5-19.2.6z"/></svg>